<mxfile host="app.diagrams.net" modified="2023-11-27T17:27:05.496Z" agent="Mozilla/5.0 (Macintosh; Intel Mac OS X 10_15_7) AppleWebKit/537.36 (KHTML, like Gecko) Chrome/119.0.0.0 Safari/537.36" version="22.1.4" etag="YAMQr37aYbpT1nez6NuR" type="github">
  <diagram name="Page-1" id="sZaRFY_wS3xeuETo2kx1">
    <mxGraphModel>
      <root>
        <mxCell id="0" />
        <mxCell id="1" parent="0" />
      </root>
    </mxGraphModel>
  </diagram>
</mxfile>
